<svg xmlns="http://www.w3.org/2000/svg" width="46.399" height="46.399" version="1" viewBox="0 0 304 304" shape-rendering="geometricPrecision" text-rendering="geometricPrecision" image-rendering="optimizeQuality" fill-rule="evenodd" clip-rule="evenodd"><g id="Слой_x0020_1"><rect width="304" height="304" rx="18" ry="18" fill="#ff9d01"/><path d="M62 99l88 21 87-18-87-22-88 19zm95 27l1 96 36-11 1-32 6-3 7 31 30-9v-13l-17-26 14-40v-8l-27 6-7 30h-6l-1-28-37 7zm-6 98l-1-28-9-2-1-68-57-13-18 67-9-1v21l95 24zm-66-38l18 4v-53l-6-3-12 52z" fill="#fefefe"/></g></svg>